# Alias OBJ Model File
# Exported from SketchUp, (c) 2000-2012 Trimble Navigation Limited
# File units = meters

mtllib 书架.mtl

g Mesh1 Bottom Basic_Shelving_Unit1 Model

usemtl Wood_Cherry_Original
v -0.471922 0.01905 -0.135504
vt -0.395833 0
vn 0 0 -1
v 0.404378 0.01905 -0.135504
vt 0 0
v 0.404378 -1.26288e-15 -0.135504
vt 0 0.00868056
v -0.471922 -1.81109e-13 -0.135504
vt -0.395833 0.00868056
f 1/1/1 2/2/1 3/3/1 4/4/1 

v -0.471922 0.01905 0.169296
vn -2.71224e-13 1 -0
v 0.404378 0.01905 0.169296
vt 0 0.138889
vt -0.395833 0.138889
f 5/1/2 6/2/2 2/5/2 1/6/2 

vn 0 -0 1
vt 0.395833 0
v -0.471922 -1.81109e-13 0.169296
vt 0.395833 0.00868056
v 0.404378 -1.26288e-15 0.169296
f 6/2/3 5/7/3 7/8/3 8/3/3 

vn -1 -2.05234e-13 -0
vt 0.138889 0
vt 0.138889 0.00868056
f 5/2/4 1/9/4 4/10/4 7/3/4 

vn 2.71224e-13 -1 -0
vt 0.395833 0.138889
f 8/2/5 7/7/5 4/11/5 3/5/5 

vt -0.138889 0
vn 1 2.05234e-13 -0
vt -0.138889 0.00868056
f 2/12/6 6/2/6 8/3/6 3/13/6 

g Mesh2 Left Basic_Shelving_Unit1 Model

v -0.471922 0.762 -0.135504
v -0.471922 -1.65285e-15 -0.135504
v -0.490972 4.821e-15 -0.135504
v -0.490972 0.762 -0.135504
f 9/1/1 10/2/1 11/3/1 12/4/1 

v -0.471922 0.762 0.169296
vn 1 -3.39835e-13 -0
v -0.471922 -1.65285e-15 0.169296
f 13/1/7 14/2/7 10/5/7 9/6/7 

vn 0 0 1
v -0.490972 0.762 0.169296
v -0.490972 4.821e-15 0.169296
f 14/2/8 13/7/8 15/8/8 16/3/8 

vt 0 -7.99379e-29
vn 4.49103e-13 1 -0
vt 0.138889 -7.99379e-29
f 13/14/9 9/15/9 12/10/9 15/3/9 

vn -1 3.39835e-13 -0
f 16/2/10 15/7/10 12/11/10 11/5/10 

vn -4.49103e-13 -1 -0
f 10/12/11 14/2/11 16/3/11 11/13/11 

g Mesh3 Shelf Basic_Shelving_Unit1 Model

v 0.404378 0.371475 0.169296
vn 1 0 -0
v 0.404378 0.371475 -0.135504
v 0.404378 0.390525 -0.135504
v 0.404378 0.390525 0.169296
f 17/2/12 18/9/12 19/10/12 20/3/12 

vn 0 -1 -0
v -0.471922 0.371475 0.169296
v -0.471922 0.371475 -0.135504
f 17/1/13 21/2/13 22/5/13 18/6/13 

v -0.471922 0.390525 0.169296
f 21/2/8 17/7/8 20/8/8 23/3/8 

vn 0 1 -0
v -0.471922 0.390525 -0.135504
f 23/2/14 20/7/14 19/11/14 24/5/14 

f 18/1/1 22/2/1 24/3/1 19/4/1 

vn -1 0 -0
f 22/12/15 21/2/15 23/3/15 24/13/15 

g Mesh4 Top Basic_Shelving_Unit1 Model

v 0.404378 0.74295 0.169296
v 0.404378 0.74295 -0.135504
v 0.404378 0.762 -0.135504
v 0.404378 0.762 0.169296
f 25/2/12 26/9/12 27/10/12 28/3/12 

v -0.471922 0.74295 0.169296
v -0.471922 0.74295 -0.135504
f 25/1/13 29/2/13 30/5/13 26/6/13 

v -0.471922 0.762 0.169296
f 29/2/8 25/7/8 28/8/8 31/3/8 

v -0.471922 0.762 -0.135504
f 31/2/14 28/7/14 27/11/14 32/5/14 

f 26/1/1 30/2/1 32/3/1 27/4/1 

f 30/12/15 29/2/15 31/3/15 32/13/15 

g Mesh5 Right Basic_Shelving_Unit1 Model

v 0.404378 -1.11022e-15 -0.135504
v 0.423428 0.762 -0.135504
v 0.423428 3.77476e-14 -0.135504
f 33/1/1 27/2/1 34/3/1 35/4/1 

v 0.404378 -1.11022e-15 0.169296
vn -1 -2.03953e-12 -0
f 36/1/16 28/2/16 27/5/16 33/6/16 

v 0.423428 3.77476e-14 0.169296
v 0.423428 0.762 0.169296
f 28/2/8 36/7/8 37/8/8 38/3/8 

vn 2.69531e-12 -1 -0
f 36/2/17 33/9/17 35/10/17 37/3/17 

vn 1 2.03953e-12 -0
f 38/2/18 37/7/18 35/11/18 34/5/18 

vn -2.69531e-12 1 -0
f 27/12/19 28/2/19 38/3/19 34/13/19 

g Mesh6 Back Basic_Shelving_Unit1 Model

v 0.423428 0.762 -0.135504
vt 0 0.395833
v 0.423428 4.57399e-14 -0.135504
v 0.423428 4.57399e-14 -0.141854
vt 0.00347222 0
v 0.423428 0.762 -0.141854
vt 0.00347222 0.395833
f 39/16/12 40/2/12 41/17/12 42/18/12 

v -0.490972 4.57399e-14 -0.135504
vt 0.413194 0
vt 0.413194 0.395833
v -0.490972 0.762 -0.135504
f 43/2/8 40/19/8 39/20/8 44/16/8 

vt -0.413194 0
v -0.490972 4.57399e-14 -0.141854
vt 0 0.00347222
vt -0.413194 0.00347222
f 40/21/13 43/2/13 45/22/13 41/23/13 

v -0.490972 0.762 -0.141854
vt -0.00347222 0.395833
vt -0.00347222 0
f 43/2/15 44/16/15 46/24/15 45/25/15 

vt 0.413194 0.00347222
f 44/2/14 39/19/14 42/26/14 46/22/14 

vt -0.413194 0.395833
f 41/21/1 45/2/1 46/16/1 42/27/1 

g Mesh7 Bottom1 Basic_Shelving_Unit2 Model

v -0.472872 0.78105 -0.135504
v 0.403428 0.78105 -0.135504
v 0.403428 0.762 -0.135504
v -0.472872 0.762 -0.135504
f 47/1/1 48/2/1 49/3/1 50/4/1 

v -0.472872 0.78105 0.169296
v 0.403428 0.78105 0.169296
f 51/1/2 52/2/2 48/5/2 47/6/2 

v -0.472872 0.762 0.169296
v 0.403428 0.762 0.169296
f 52/2/3 51/7/3 53/8/3 54/3/3 

f 51/2/4 47/9/4 50/10/4 53/3/4 

f 54/2/5 53/7/5 50/11/5 49/5/5 

f 48/12/6 52/2/6 54/3/6 49/13/6 

g Mesh8 Left1 Basic_Shelving_Unit2 Model

v -0.472872 1.524 -0.135504
v -0.472872 0.762 -0.135504
v -0.491922 0.762 -0.135504
v -0.491922 1.524 -0.135504
f 55/1/1 56/2/1 57/3/1 58/4/1 

v -0.472872 1.524 0.169296
v -0.472872 0.762 0.169296
f 59/1/7 60/2/7 56/5/7 55/6/7 

v -0.491922 1.524 0.169296
v -0.491922 0.762 0.169296
f 60/2/8 59/7/8 61/8/8 62/3/8 

f 59/14/9 55/15/9 58/10/9 61/3/9 

f 62/2/10 61/7/10 58/11/10 57/5/10 

f 56/12/11 60/2/11 62/3/11 57/13/11 

g Mesh9 Shelf1 Basic_Shelving_Unit2 Model

v 0.403428 1.13347 0.169296
v 0.403428 1.13347 -0.135504
v 0.403428 1.15252 -0.135504
v 0.403428 1.15252 0.169296
f 63/2/12 64/9/12 65/10/12 66/3/12 

v -0.472872 1.13347 0.169296
v -0.472872 1.13347 -0.135504
f 63/1/13 67/2/13 68/5/13 64/6/13 

v -0.472872 1.15252 0.169296
f 67/2/8 63/7/8 66/8/8 69/3/8 

v -0.472872 1.15252 -0.135504
f 69/2/14 66/7/14 65/11/14 70/5/14 

f 64/1/1 68/2/1 70/3/1 65/4/1 

f 68/12/15 67/2/15 69/3/15 70/13/15 

g Mesh10 Top1 Basic_Shelving_Unit2 Model

v 0.403428 1.50495 0.169296
v 0.403428 1.50495 -0.135504
v 0.403428 1.524 -0.135504
v 0.403428 1.524 0.169296
f 71/2/12 72/9/12 73/10/12 74/3/12 

v -0.472872 1.50495 0.169296
v -0.472872 1.50495 -0.135504
f 71/1/13 75/2/13 76/5/13 72/6/13 

v -0.472872 1.524 0.169296
f 75/2/8 71/7/8 74/8/8 77/3/8 

v -0.472872 1.524 -0.135504
f 77/2/14 74/7/14 73/11/14 78/5/14 

f 72/1/1 76/2/1 78/3/1 73/4/1 

f 76/12/15 75/2/15 77/3/15 78/13/15 

g Mesh11 Right1 Basic_Shelving_Unit2 Model

v 0.403428 0.762 -0.135504
v 0.422478 1.524 -0.135504
v 0.422478 0.762 -0.135504
f 79/1/1 73/2/1 80/3/1 81/4/1 

v 0.403428 0.762 0.169296
f 82/1/16 74/2/16 73/5/16 79/6/16 

v 0.422478 0.762 0.169296
v 0.422478 1.524 0.169296
f 74/2/8 82/7/8 83/8/8 84/3/8 

f 82/2/17 79/9/17 81/10/17 83/3/17 

f 84/2/18 83/7/18 81/11/18 80/5/18 

f 73/12/19 74/2/19 84/3/19 80/13/19 

g Mesh12 Back1 Basic_Shelving_Unit2 Model

v 0.422478 1.524 -0.135504
v 0.422478 0.762 -0.135504
v 0.422478 0.762 -0.141854
v 0.422478 1.524 -0.141854
f 85/16/12 86/2/12 87/17/12 88/18/12 

v -0.491922 0.762 -0.135504
v -0.491922 1.524 -0.135504
f 89/2/8 86/19/8 85/20/8 90/16/8 

v -0.491922 0.762 -0.141854
f 86/21/13 89/2/13 91/22/13 87/23/13 

v -0.491922 1.524 -0.141854
f 89/2/15 90/16/15 92/24/15 91/25/15 

f 90/2/14 85/19/14 88/26/14 92/22/14 

f 87/21/1 91/2/1 92/16/1 88/27/1 

